<svg id="Group_362" data-name="Group 362" xmlns="http://www.w3.org/2000/svg" xmlns:xlink="http://www.w3.org/1999/xlink" width="28" height="28" viewBox="0 0 28 28">
  <defs>
    <clipPath id="clip-path">
      <rect id="Rectangle_5" data-name="Rectangle 5" width="28" height="28" fill="none"/>
    </clipPath>
  </defs>
  <g id="Group_7" data-name="Group 7">
    <g id="Group_6" data-name="Group 6" transform="translate(0)" clip-path="url(#clip-path)">
      <path id="Path_11" data-name="Path 11" d="M179.763,105.395a4.1,4.1,0,1,0-4.1-4.1,4.1,4.1,0,0,0,4.1,4.1m-2.5-4.1a2.5,2.5,0,1,1,2.5,2.5,2.5,2.5,0,0,1-2.5-2.5" transform="translate(-165.763 -91.565)"/>
      <path id="Path_13" data-name="Path 13" d="M13.658,0A13.658,13.658,0,1,0,27.316,13.658,13.658,13.658,0,0,0,13.658,0M22.2,22.2a12.038,12.038,0,1,1,2.59-3.84A12.043,12.043,0,0,1,22.2,22.2" transform="translate(0.342 0.342)"/>
    </g>
  </g>
  <path id="Path_157" data-name="Path 157" d="M-484,149.774h0a4.9,4.9,0,0,1,4.884-4.884h9.768a4.9,4.9,0,0,1,4.884,4.884h0" transform="translate(488.316 -127.582)" fill="none" stroke="#000" stroke-miterlimit="10" stroke-width="2"/>
</svg>
