<svg id="Component_3_1" data-name="Component 3 – 1" xmlns="http://www.w3.org/2000/svg" xmlns:xlink="http://www.w3.org/1999/xlink" width="160" height="57.121" viewBox="0 0 160 57.121">
  <defs>
    <clipPath id="clip-path">
      <rect id="Rectangle_2" data-name="Rectangle 2" width="160" height="57.121" fill="#504999"/>
    </clipPath>
  </defs>
  <rect id="Rectangle_1" data-name="Rectangle 1" width="7.893" height="23.626" transform="translate(32.696 13.869)" fill="#504999"/>
  <g id="Group_2" data-name="Group 2">
    <g id="Group_1" data-name="Group 1" clip-path="url(#clip-path)">
      <path id="Path_1" data-name="Path 1" d="M68.526,4.687A4.685,4.685,0,1,0,63.84,9.371a4.685,4.685,0,0,0,4.685-4.684" transform="translate(-27.084 -0.001)" fill="#504999"/>
      <path id="Path_2" data-name="Path 2" d="M273.475,0l-.034,34.174c0,5.1.5,9.182-6.644,14.276l-.009,8.671s13.777-5.1,14.3-15.288S282.146.009,282.146.009Z" transform="translate(-122.147 0)" fill="#504999"/>
      <path id="Path_3" data-name="Path 3" d="M238.39,0V20.515a16.053,16.053,0,0,0,5.656,12.623,20.614,20.614,0,0,0,13.764,5.1V29.569s-5.775.477-8.964-3.236c-1.68-1.957-2-3.959-2-6.508V0Z" transform="translate(-109.145 -0.001)" fill="#504999"/>
      <path id="Path_4" data-name="Path 4" d="M81.795,20.822a25.4,25.4,0,0,1,1.445-8.928,18.2,18.2,0,0,1,4.049-6.506,17.08,17.08,0,0,1,6.29-4.013A23.251,23.251,0,0,1,101.748,0a19.552,19.552,0,0,1,7.591,1.446,18.819,18.819,0,0,1,6.036,3.977,17.953,17.953,0,0,1,4.013,6.072,20.1,20.1,0,0,1,1.446,7.663,20.463,20.463,0,0,1-1.41,7.7,18.112,18.112,0,0,1-3.9,6.036,17.772,17.772,0,0,1-5.856,3.94,18.783,18.783,0,0,1-7.338,1.41,16.125,16.125,0,0,1-7.3-1.59,14.285,14.285,0,0,1-4.988-3.9V48.406H81.795ZM101.17,30.943a11.12,11.12,0,0,0,4.518-.9,10.6,10.6,0,0,0,3.542-2.494,11.014,11.014,0,0,0,2.277-3.759,13.544,13.544,0,0,0,.8-4.7,13.032,13.032,0,0,0-.8-4.59,10.707,10.707,0,0,0-2.277-3.687,10.88,10.88,0,0,0-3.542-2.458,11.13,11.13,0,0,0-4.518-.9,11.53,11.53,0,0,0-4.518.867A10.472,10.472,0,0,0,90.8,14.351a12.935,12.935,0,0,0-.831,4.736,13.009,13.009,0,0,0,.831,4.7,11.775,11.775,0,0,0,2.277,3.759,10.218,10.218,0,0,0,3.507,2.494,11.3,11.3,0,0,0,4.59.9" transform="translate(-37.449 0)" fill="#504999"/>
      <path id="Path_5" data-name="Path 5" d="M199.131,20.816V38.083h-8.24V32.741a14.262,14.262,0,0,1-4.987,3.9,16.114,16.114,0,0,1-7.3,1.591,18.784,18.784,0,0,1-7.335-1.41,17.776,17.776,0,0,1-5.854-3.939,18.1,18.1,0,0,1-3.9-6.035,20.459,20.459,0,0,1-1.409-7.7,20.083,20.083,0,0,1,1.445-7.661,17.967,17.967,0,0,1,4.011-6.071,18.816,18.816,0,0,1,6.035-3.975A19.539,19.539,0,0,1,179.183,0a23.248,23.248,0,0,1,8.167,1.373,17.07,17.07,0,0,1,6.288,4.011,18.21,18.21,0,0,1,4.048,6.5,25.4,25.4,0,0,1,1.445,8.926m-14.78,9.215a10.217,10.217,0,0,0,3.506-2.493,11.753,11.753,0,0,0,2.277-3.758,13,13,0,0,0,.831-4.7,12.921,12.921,0,0,0-.831-4.734,10.466,10.466,0,0,0-5.854-6.035,11.524,11.524,0,0,0-4.517-.867,11.122,11.122,0,0,0-4.517.9,10.874,10.874,0,0,0-3.541,2.458,10.709,10.709,0,0,0-2.277,3.686,13.043,13.043,0,0,0-.8,4.589,13.549,13.549,0,0,0,.8,4.7,11,11,0,0,0,2.277,3.758,10.593,10.593,0,0,0,3.541,2.493,11.114,11.114,0,0,0,4.517.9,11.292,11.292,0,0,0,4.589-.9" transform="translate(-73.302 0)" fill="#504999"/>
      <path id="Path_6" data-name="Path 6" d="M8.843,9.387c1.052-.818,2.931-.923,5.231-.923H27.842V.006H13.3C9.816.006.515-.478,0,9.387Z" transform="translate(0 -0.001)" fill="#504999"/>
      <path id="Path_7" data-name="Path 7" d="M21.8,28.657a39.134,39.134,0,0,0-6.081-1.614c-2.451-.565-4.863-1.131-6.575-2.44H.493C1.509,29.6,5.82,31.652,8.146,32.461a47.142,47.142,0,0,0,4.947,1.464c3.332.769,8.373,1.243,8.373,4.062s-2.563,3.076-6.151,3.076H1.546V49.52H16.084c3.588,0,13.327.513,13.327-10.252,0-7.332-5.138-9.653-7.614-10.612" transform="translate(-0.226 -11.264)" fill="#504999"/>
    </g>
  </g>
</svg>
