<svg id="Group_97" data-name="Group 97" xmlns="http://www.w3.org/2000/svg" width="32.01" height="28.056" viewBox="0 0 32.01 28.056">
  <path id="Path_153" data-name="Path 153" d="M0,51.47a.938.938,0,0,0,1.482.763l5.156-3.678a2.523,2.523,0,0,1,1.473-.472h11.34a3.624,3.624,0,0,0,3.62-3.62v-11.9a.938.938,0,0,0-.938-.938H3.62A3.624,3.624,0,0,0,0,35.246ZM1.876,35.246A1.746,1.746,0,0,1,3.62,33.5H21.2V44.463a1.746,1.746,0,0,1-1.744,1.744H8.112a4.388,4.388,0,0,0-2.562.82L1.876,49.649Z" transform="translate(0 -31.626)"/>
  <path id="Path_154" data-name="Path 154" d="M166.042,151.587a3.624,3.624,0,0,0-3.62-3.621h-2.505a.938.938,0,0,0,0,1.876h2.505a1.747,1.747,0,0,1,1.744,1.745v14.4l-3.674-2.621a4.387,4.387,0,0,0-2.562-.82H146.59a1.747,1.747,0,0,1-1.744-1.745v-.84a.938.938,0,0,0-1.876,0v.84a3.624,3.624,0,0,0,3.62,3.621h11.34a2.522,2.522,0,0,1,1.473.471l5.156,3.678a.939.939,0,0,0,1.482-.763V151.587Z" transform="translate(-134.032 -140.692)"/>
  <path id="Path_155" data-name="Path 155" d="M93.8,115.215h10.835a.938.938,0,0,0,0-1.876H93.8a.938.938,0,0,0,0,1.876Z" transform="translate(-87.056 -108.23)"/>
  <path id="Path_156" data-name="Path 156" d="M93.8,185.215h10.835a.938.938,0,0,0,0-1.876H93.8a.938.938,0,0,0,0,1.876Z" transform="translate(-87.056 -173.854)"/>
</svg>
